# xmcd
#
# Track frame offsets:
# 150
# 9456
# 23246
# 34515
# 47285
# 59161
# 70254
# 81415
# 92843
# 103704
# 114497
#
# Disc length: 1643 seconds
#
#
# Revision: 0
# Processed by: cddbd v1.5PL3 Copyright (c) Steve Scherf et al.
# Submitted via: FreeRIP 2.53 
#
DISCID=8a06690b
DTITLE=Owens, Buck - All Time Greatest Hits Vol. 2
DYEAR=1900
DGENRE=
TTITLE0=Love's Gonna Live Here
TTITLE1=Tall Dark Stranger
TTITLE2=Ruby (Are You Mad)
TTITLE3=Your Tender Loving Care
TTITLE4=Second Fiddle
TTITLE5=Johnny B. Goode
TTITLE6=Above And Beyond
TTITLE7=Open Up Your Heart
TTITLE8=The Kansas City Song
TTITLE9=Where Does The Good Times Go
TTITLE10=Gonna Have Love
EXTD=
EXTT0=
EXTT1=
EXTT2=
EXTT3=
EXTT4=
EXTT5=
EXTT6=
EXTT7=
EXTT8=
EXTT9=
EXTT10=
PLAYORDER=
